<svg height="32pt" viewBox="-1 0 512 512" width="32pt" xmlns="http://www.w3.org/2000/svg"><path d="m246.78125 192.882812-23.757812-41.148437c-1.988282-3.445313-5.269532-5.960937-9.113282-6.988281-3.847656-1.027344-7.941406-.484375-11.386718 1.507812-32.398438 18.746094-52.523438 53.5625-52.523438 90.863282 0 8.285156 6.714844 15 15 15h47.578125c-1.664063-4.695313-2.578125-9.738282-2.578125-15 0-22.003907 15.882812-40.359376 36.78125-44.234376zm0 0"/><path d="m345 252.117188c8.285156 0 15-6.714844 15-15 0-37.300782-20.125-72.117188-52.519531-90.863282-3.449219-1.996094-7.542969-2.535156-11.390625-1.511718-3.84375 1.03125-7.125 3.546874-9.113282 6.992187l-23.757812 41.148437c20.898438 3.875 36.78125 22.230469 36.78125 44.234376 0 5.257812-.914062 10.304687-2.578125 15zm0 0"/><path d="m312.957031 307.5-23.769531-41.167969c-8.261719 9.652344-20.515625 15.785157-34.1875 15.785157s-25.925781-6.132813-34.1875-15.785157l-23.769531 41.167969c-4.136719 7.167969-1.6875 16.335938 5.480469 20.484375 15.980468 9.246094 34.125 14.132813 52.476562 14.132813s36.496094-4.886719 52.476562-14.132813c7.167969-4.148437 9.617188-13.316406 5.480469-20.484375zm0 0"/><path d="m257.25 411.292969-12-24c-3.703125-7.410157-12.714844-10.414063-20.125-6.707031-7.410156 3.703124-10.414062 12.714843-6.707031 20.121093l12 24c2.628906 5.257813 7.925781 8.296875 13.425781 8.296875 2.253906 0 4.542969-.511718 6.695312-1.589844 7.410157-3.703124 10.414063-12.714843 6.710938-20.121093zm0 0"/><path d="m284.75 466.289062c-3.703125-7.410156-12.714844-10.414062-20.125-6.707031-7.410156 3.703125-10.414062 12.714844-6.707031 20.121094l12 24c2.628906 5.257813 7.925781 8.296875 13.425781 8.296875 2.253906 0 4.542969-.511719 6.695312-1.585938 7.410157-3.703124 10.414063-12.714843 6.710938-20.125zm0 0"/><path d="m163.917969 411.292969-12-24c-3.707031-7.410157-12.71875-10.414063-20.125-6.707031-7.410157 3.703124-10.414063 12.714843-6.707031 20.121093l12 24c2.625 5.257813 7.921874 8.296875 13.425781 8.296875 2.253906 0 4.542969-.511718 6.695312-1.589844 7.410157-3.703124 10.414063-12.714843 6.710938-20.121093zm0 0"/><path d="m191.417969 466.289062c-3.707031-7.410156-12.71875-10.414062-20.125-6.707031-7.410157 3.703125-10.414063 12.714844-6.707031 20.121094l12 24c2.625 5.257813 7.921874 8.296875 13.425781 8.296875 2.253906 0 4.542969-.511719 6.695312-1.585938 7.410157-3.703124 10.414063-12.714843 6.707031-20.125zm0 0"/><path d="m443.917969 411.292969-12-24c-3.707031-7.410157-12.71875-10.414063-20.125-6.707031-7.410157 3.703124-10.414063 12.714843-6.707031 20.121093l12 24c2.625 5.257813 7.921874 8.296875 13.425781 8.296875 2.253906 0 4.542969-.511718 6.695312-1.589844 7.410157-3.703124 10.414063-12.714843 6.710938-20.121093zm0 0"/><path d="m471.417969 466.289062c-3.707031-7.410156-12.71875-10.414062-20.125-6.707031-7.410157 3.703125-10.414063 12.714844-6.707031 20.121094l12 24c2.625 5.257813 7.921874 8.296875 13.425781 8.296875 2.253906 0 4.542969-.511719 6.695312-1.585938 7.410157-3.703124 10.414063-12.714843 6.707031-20.125zm0 0"/><path d="m350.582031 411.292969-12-24c-3.703125-7.410157-12.714843-10.414063-20.125-6.707031-7.410156 3.703124-10.410156 12.714843-6.707031 20.121093l12 24c2.628906 5.257813 7.925781 8.296875 13.429688 8.296875 2.253906 0 4.542968-.511718 6.695312-1.589844 7.410156-3.703124 10.414062-12.714843 6.707031-20.121093zm0 0"/><path d="m378.082031 466.289062c-3.703125-7.410156-12.714843-10.414062-20.125-6.707031-7.410156 3.703125-10.410156 12.714844-6.707031 20.121094l12 24c2.628906 5.257813 7.925781 8.296875 13.429688 8.296875 2.253906 0 4.542968-.511719 6.695312-1.585938 7.410156-3.703124 10.410156-12.714843 6.707031-20.125zm0 0"/><path d="m255 252.117188c8.269531 0 15-6.726563 15-15 0-8.269532-6.730469-15-15-15s-15 6.730468-15 15c0 8.273437 6.730469 15 15 15zm0 0"/><path d="m171.0625 292.5 5.996094-10.382812h-12.058594c-24.8125 0-45-20.1875-45-45 0-47.972657 25.863281-92.738282 67.496094-116.832032 6.839844-3.957031 14.632812-6.050781 22.539062-6.050781 3.921875 0 7.828125.511719 11.617188 1.527344 11.632812 3.109375 21.339844 10.558593 27.355468 20.972656l5.992188 10.382813 5.992188-10.382813c6.015624-10.414063 15.722656-17.859375 27.34375-20.96875 3.800781-1.019531 7.710937-1.53125 11.628906-1.53125 7.902344 0 15.699218 2.09375 22.539062 6.054687 41.632813 24.089844 67.496094 68.855469 67.496094 116.828126 0 24.8125-20.1875 45-45 45h-12.058594l5.996094 10.382812c6.832031 11.835938 7.648438 25.519531 3.417969 37.5h72.644531c52.382812 0 95-42.617188 95-95 0-48.292969-36.226562-88.285156-82.929688-94.234375 1.949219-8.417969 2.929688-17.027344 2.929688-25.765625 0-63.410156-51.589844-115-115-115-22.199219 0-43.742188 6.355469-62.304688 18.386719-13.226562 8.570312-24.492187 19.703125-33.183593 32.695312-13.621094-7.289062-28.742188-11.082031-44.511719-11.082031-52.382812 0-95 42.617188-95 95 0 2.039062.070312 4.089844.214844 6.148438-45.386719 7.125-80.214844 46.496093-80.214844 93.851562 0 52.382812 42.617188 95 95 95h72.644531c-4.230469-11.980469-3.414062-25.664062 3.417969-37.5zm0 0"/></svg>