<svg id="Capa_1" enable-background="new 0 0 512 512" height="32" viewBox="0 0 512 512" width="32" xmlns="http://www.w3.org/2000/svg"><g><path d="m406 151h-30v-30h30c15.599 0 30.352 3.188 44.301 8.075-3.69-71.171-62.229-129.075-134.301-129.075-57.891 0-105 48.109-105 106h-30c0-26.656 8.011-51.37 21.398-72.323-6.951-1.707-14.101-2.677-21.398-2.677-49.629 0-90 40.371-90 90 0 23.134 9.016 44.041 23.408 60h111.592c8.276 0 15-6.724 15-15.01h30c0 24.798-20.186 45.01-45 45.01h-226v90h226c24.814 0 45 20.186 45 45h-30c0-8.276-6.724-15-15-15h-111.592c-14.392 15.959-23.408 36.866-23.408 60 0 49.629 40.371 91 90 91 7.295 0 14.447-.972 21.398-2.679-13.385-20.953-21.398-46.666-21.398-73.321h30c0 57.891 47.109 106 105 106 72.072 0 130.611-57.904 134.301-129.075-13.949 4.887-28.702 8.075-44.301 8.075h-30v-30h30c57.891 0 106-47.109 106-105s-48.109-105-106-105z"/></g></svg>