<?xml version="1.0" encoding="iso-8859-1"?>
<!-- Generator: Adobe Illustrator 19.0.0, SVG Export Plug-In . SVG Version: 6.00 Build 0)  -->
<svg version="1.1" id="Capa_1" xmlns="http://www.w3.org/2000/svg" xmlns:xlink="http://www.w3.org/1999/xlink" x="0px" y="0px"
	 viewBox="0 0 512 512" style="enable-background:new 0 0 512 512;" xml:space="preserve">
<g>
	<g>
		<g>
			<path d="M143.396,363.771c-3.646-1.823-8-1.396-11.208,1.094l-33.146,25.365c-8.708,6.188-13.708,15.563-13.708,25.771
				c0,17.646,14.354,32,32,32c17.646,0,32-14.354,32-32v-42.667C149.333,369.271,147.021,365.563,143.396,363.771z"/>
			<path d="M260.729,427.771c-3.646-1.813-8-1.396-11.208,1.094l-33.146,25.365c-8.708,6.177-13.708,15.552-13.708,25.771
				c0,17.646,14.354,32,32,32c17.646,0,32-14.354,32-32v-42.667C266.667,433.271,264.354,429.563,260.729,427.771z"/>
			<path d="M378.063,363.771c-3.646-1.823-8-1.396-11.208,1.094l-33.146,25.365C325,396.417,320,405.792,320,416
				c0,17.646,14.354,32,32,32c17.646,0,32-14.354,32-32v-42.667C384,369.271,381.688,365.563,378.063,363.771z"/>
			<path d="M394.667,106.667c-25.042,0-50.042,8.333-70.333,23.438c-4.688,3.438-11.583,2.365-14.958-2.177
				c-3.5-4.729-2.521-11.427,2.208-14.938c15.792-11.76,34.979-20.219,55.479-24.448c3.521-0.729,6.438-3.188,7.75-6.531
				c1.333-3.344,0.875-7.135-1.208-10.073C341.792,26.896,289.854,0,234.667,0C161.938,0,97.208,46,73.563,114.479
				c-1.188,3.427-0.542,7.229,1.708,10.083c2.25,2.844,5.583,4.365,9.417,4.01C88.396,128.208,92.188,128,96,128
				c5.875,0,10.667,4.781,10.667,10.667c0,5.885-4.792,10.667-10.667,10.667c-52.938,0-96,43.063-96,96s43.063,96,96,96h27.333
				c3.813,0,7.333-2.042,9.25-5.344c1.896-3.313,1.896-7.375-0.021-10.677c-0.417-0.698-0.875-1.344-1-1.344h-0.021
				c-5.5-10.698-4.583-23.438,2.417-33.24l106.646-149.323c8.583-11.979,25.271-16.656,38.792-10.76
				c13.75,5.948,21.604,20.938,18.646,35.625l-11.125,55.635c-0.625,3.135,0.188,6.385,2.208,8.854s5.063,3.906,8.25,3.906h11.958
				c12.042,0,22.938,6.656,28.458,17.365c5.5,10.698,4.583,23.438-2.417,33.24l-28,39.198c-2.313,3.25-2.625,7.521-0.792,11.083
				c1.813,3.552,5.479,5.781,9.479,5.781h78.604C459.354,341.333,512,288.698,512,224S459.354,106.667,394.667,106.667z"/>
			<path d="M211.354,422.198l106.667-149.333c2.313-3.25,2.625-7.531,0.792-11.083S313.333,256,309.333,256h-50.979l18.771-93.906
				c0.979-4.938-1.604-9.885-6.208-11.885c-4.563-1.948-9.979-0.5-12.938,3.594L151.313,303.135
				c-2.313,3.25-2.625,7.531-0.792,11.083C152.354,317.771,156,320,160,320h50.979l-18.771,93.906
				c-0.979,4.938,1.604,9.885,6.208,11.885c1.375,0.594,2.813,0.875,4.25,0.875C206.021,426.667,209.292,425.073,211.354,422.198z"
				/>
		</g>
	</g>
</g>
<g>
</g>
<g>
</g>
<g>
</g>
<g>
</g>
<g>
</g>
<g>
</g>
<g>
</g>
<g>
</g>
<g>
</g>
<g>
</g>
<g>
</g>
<g>
</g>
<g>
</g>
<g>
</g>
<g>
</g>
</svg>
